<?xml version="1.0" encoding="UTF-8" standalone="no"?>
<!DOCTYPE svg PUBLIC "-//W3C//DTD SVG 1.1//EN"
 "http://www.w3.org/Graphics/SVG/1.1/DTD/svg11.dtd">
<!-- Generated by graphviz version 2.43.0 (0)
 -->
<!-- Title: %3 Pages: 1 -->
<svg width="2283pt" height="404pt"
 viewBox="0.00 0.00 2282.98 404.00" xmlns="http://www.w3.org/2000/svg" xmlns:xlink="http://www.w3.org/1999/xlink">
<g id="graph0" class="graph" transform="scale(1 1) rotate(0) translate(4 400)">
<title>%3</title>
<polygon fill="white" stroke="transparent" points="-4,4 -4,-400 2278.98,-400 2278.98,4 -4,4"/>
<!-- [root] local_file.create&#45;hostname&#45;file (expand) -->
<g id="node1" class="node">
<title>[root] local_file.create&#45;hostname&#45;file (expand)</title>
<polygon fill="none" stroke="black" points="1611.98,-252 1383.98,-252 1383.98,-216 1611.98,-216 1611.98,-252"/>
<text text-anchor="middle" x="1497.98" y="-230.3" font-family="Times,serif" font-size="14.00">local_file.create&#45;hostname&#45;file</text>
</g>
<!-- [root] proxmox_vm_qemu.tf&#45;agents (expand) -->
<g id="node5" class="node">
<title>[root] proxmox_vm_qemu.tf&#45;agents (expand)</title>
<polygon fill="none" stroke="black" points="1826.48,-180 1605.48,-180 1605.48,-144 1826.48,-144 1826.48,-180"/>
<text text-anchor="middle" x="1715.98" y="-158.3" font-family="Times,serif" font-size="14.00">proxmox_vm_qemu.tf&#45;agents</text>
</g>
<!-- [root] local_file.create&#45;hostname&#45;file (expand)&#45;&gt;[root] proxmox_vm_qemu.tf&#45;agents (expand) -->
<g id="edge1" class="edge">
<title>[root] local_file.create&#45;hostname&#45;file (expand)&#45;&gt;[root] proxmox_vm_qemu.tf&#45;agents (expand)</title>
<path fill="none" stroke="black" d="M1551.03,-215.97C1581.75,-206.1 1620.61,-193.62 1652.9,-183.25"/>
<polygon fill="black" stroke="black" points="1654.24,-186.5 1662.69,-180.11 1652.1,-179.84 1654.24,-186.5"/>
</g>
<!-- [root] local_file.create&#45;inventory&#45;file (expand) -->
<g id="node2" class="node">
<title>[root] local_file.create&#45;inventory&#45;file (expand)</title>
<polygon fill="none" stroke="black" points="637.48,-108 410.48,-108 410.48,-72 637.48,-72 637.48,-108"/>
<text text-anchor="middle" x="523.98" y="-86.3" font-family="Times,serif" font-size="14.00">local_file.create&#45;inventory&#45;file</text>
</g>
<!-- [root] provider[&quot;registry.terraform.io/hashicorp/local&quot;] -->
<g id="node3" class="node">
<title>[root] provider[&quot;registry.terraform.io/hashicorp/local&quot;]</title>
<polygon fill="none" stroke="black" points="329.98,-36 0.02,-18 329.98,0 659.93,-18 329.98,-36"/>
<text text-anchor="middle" x="329.98" y="-14.3" font-family="Times,serif" font-size="14.00">provider[&quot;registry.terraform.io/hashicorp/local&quot;]</text>
</g>
<!-- [root] local_file.create&#45;inventory&#45;file (expand)&#45;&gt;[root] provider[&quot;registry.terraform.io/hashicorp/local&quot;] -->
<g id="edge2" class="edge">
<title>[root] local_file.create&#45;inventory&#45;file (expand)&#45;&gt;[root] provider[&quot;registry.terraform.io/hashicorp/local&quot;]</title>
<path fill="none" stroke="black" d="M476.52,-71.88C447.49,-61.4 410.38,-48.01 380.76,-37.33"/>
<polygon fill="black" stroke="black" points="381.63,-33.91 371.03,-33.81 379.25,-40.5 381.63,-33.91"/>
</g>
<!-- [root] var.ips -->
<g id="node9" class="node">
<title>[root] var.ips</title>
<polygon fill="none" stroke="black" points="735.98,-36 677.98,-36 677.98,0 741.98,0 741.98,-30 735.98,-36"/>
<polyline fill="none" stroke="black" points="735.98,-36 735.98,-30 "/>
<polyline fill="none" stroke="black" points="741.98,-30 735.98,-30 "/>
<text text-anchor="middle" x="709.98" y="-14.3" font-family="Times,serif" font-size="14.00">var.ips</text>
</g>
<!-- [root] local_file.create&#45;inventory&#45;file (expand)&#45;&gt;[root] var.ips -->
<g id="edge3" class="edge">
<title>[root] local_file.create&#45;inventory&#45;file (expand)&#45;&gt;[root] var.ips</title>
<path fill="none" stroke="black" d="M572.17,-71.96C598.27,-62.61 631.25,-50.57 668.3,-36.2"/>
<polygon fill="black" stroke="black" points="669.75,-39.39 677.8,-32.49 667.21,-32.86 669.75,-39.39"/>
</g>
<!-- [root] provider[&quot;registry.terraform.io/telmate/proxmox&quot;] -->
<g id="node4" class="node">
<title>[root] provider[&quot;registry.terraform.io/telmate/proxmox&quot;]</title>
<polygon fill="none" stroke="black" points="998.98,-108 655.45,-90 998.98,-72 1342.51,-90 998.98,-108"/>
<text text-anchor="middle" x="998.98" y="-86.3" font-family="Times,serif" font-size="14.00">provider[&quot;registry.terraform.io/telmate/proxmox&quot;]</text>
</g>
<!-- [root] var.proxmox -->
<g id="node11" class="node">
<title>[root] var.proxmox</title>
<polygon fill="none" stroke="black" points="1045.48,-36 946.48,-36 946.48,0 1051.48,0 1051.48,-30 1045.48,-36"/>
<polyline fill="none" stroke="black" points="1045.48,-36 1045.48,-30 "/>
<polyline fill="none" stroke="black" points="1051.48,-30 1045.48,-30 "/>
<text text-anchor="middle" x="998.98" y="-14.3" font-family="Times,serif" font-size="14.00">var.proxmox</text>
</g>
<!-- [root] provider[&quot;registry.terraform.io/telmate/proxmox&quot;]&#45;&gt;[root] var.proxmox -->
<g id="edge6" class="edge">
<title>[root] provider[&quot;registry.terraform.io/telmate/proxmox&quot;]&#45;&gt;[root] var.proxmox</title>
<path fill="none" stroke="black" d="M998.98,-71.7C998.98,-63.98 998.98,-54.71 998.98,-46.11"/>
<polygon fill="black" stroke="black" points="1002.48,-46.1 998.98,-36.1 995.48,-46.1 1002.48,-46.1"/>
</g>
<!-- [root] proxmox_vm_qemu.tf&#45;agents (expand)&#45;&gt;[root] local_file.create&#45;inventory&#45;file (expand) -->
<g id="edge7" class="edge">
<title>[root] proxmox_vm_qemu.tf&#45;agents (expand)&#45;&gt;[root] local_file.create&#45;inventory&#45;file (expand)</title>
<path fill="none" stroke="black" d="M1605.23,-158.76C1412.53,-154.14 1002.95,-141.16 647.55,-108.1"/>
<polygon fill="black" stroke="black" points="647.87,-104.62 637.58,-107.17 647.21,-111.59 647.87,-104.62"/>
</g>
<!-- [root] proxmox_vm_qemu.tf&#45;agents (expand)&#45;&gt;[root] provider[&quot;registry.terraform.io/telmate/proxmox&quot;] -->
<g id="edge8" class="edge">
<title>[root] proxmox_vm_qemu.tf&#45;agents (expand)&#45;&gt;[root] provider[&quot;registry.terraform.io/telmate/proxmox&quot;]</title>
<path fill="none" stroke="black" d="M1605.13,-150.18C1474.55,-137.43 1258.25,-116.31 1122.44,-103.05"/>
<polygon fill="black" stroke="black" points="1122.69,-99.56 1112.39,-102.07 1122,-106.53 1122.69,-99.56"/>
</g>
<!-- [root] var.clone&#45;image -->
<g id="node7" class="node">
<title>[root] var.clone&#45;image</title>
<polygon fill="none" stroke="black" points="1482.98,-108 1360.98,-108 1360.98,-72 1488.98,-72 1488.98,-102 1482.98,-108"/>
<polyline fill="none" stroke="black" points="1482.98,-108 1482.98,-102 "/>
<polyline fill="none" stroke="black" points="1488.98,-102 1482.98,-102 "/>
<text text-anchor="middle" x="1424.98" y="-86.3" font-family="Times,serif" font-size="14.00">var.clone&#45;image</text>
</g>
<!-- [root] proxmox_vm_qemu.tf&#45;agents (expand)&#45;&gt;[root] var.clone&#45;image -->
<g id="edge9" class="edge">
<title>[root] proxmox_vm_qemu.tf&#45;agents (expand)&#45;&gt;[root] var.clone&#45;image</title>
<path fill="none" stroke="black" d="M1645.16,-143.97C1600.9,-133.32 1543.98,-119.63 1499.11,-108.83"/>
<polygon fill="black" stroke="black" points="1499.69,-105.37 1489.14,-106.44 1498.05,-112.18 1499.69,-105.37"/>
</g>
<!-- [root] var.hostnames -->
<g id="node8" class="node">
<title>[root] var.hostnames</title>
<polygon fill="none" stroke="black" points="1620.98,-108 1506.98,-108 1506.98,-72 1626.98,-72 1626.98,-102 1620.98,-108"/>
<polyline fill="none" stroke="black" points="1620.98,-108 1620.98,-102 "/>
<polyline fill="none" stroke="black" points="1626.98,-102 1620.98,-102 "/>
<text text-anchor="middle" x="1566.98" y="-86.3" font-family="Times,serif" font-size="14.00">var.hostnames</text>
</g>
<!-- [root] proxmox_vm_qemu.tf&#45;agents (expand)&#45;&gt;[root] var.hostnames -->
<g id="edge10" class="edge">
<title>[root] proxmox_vm_qemu.tf&#45;agents (expand)&#45;&gt;[root] var.hostnames</title>
<path fill="none" stroke="black" d="M1679.53,-143.88C1659.34,-134.39 1634.06,-122.51 1612.57,-112.42"/>
<polygon fill="black" stroke="black" points="1613.85,-109.15 1603.31,-108.07 1610.87,-115.49 1613.85,-109.15"/>
</g>
<!-- [root] var.node&#45;id&#45;prefix -->
<g id="node10" class="node">
<title>[root] var.node&#45;id&#45;prefix</title>
<polygon fill="none" stroke="black" points="1780.48,-108 1645.48,-108 1645.48,-72 1786.48,-72 1786.48,-102 1780.48,-108"/>
<polyline fill="none" stroke="black" points="1780.48,-108 1780.48,-102 "/>
<polyline fill="none" stroke="black" points="1786.48,-102 1780.48,-102 "/>
<text text-anchor="middle" x="1715.98" y="-86.3" font-family="Times,serif" font-size="14.00">var.node&#45;id&#45;prefix</text>
</g>
<!-- [root] proxmox_vm_qemu.tf&#45;agents (expand)&#45;&gt;[root] var.node&#45;id&#45;prefix -->
<g id="edge11" class="edge">
<title>[root] proxmox_vm_qemu.tf&#45;agents (expand)&#45;&gt;[root] var.node&#45;id&#45;prefix</title>
<path fill="none" stroke="black" d="M1715.98,-143.7C1715.98,-135.98 1715.98,-126.71 1715.98,-118.11"/>
<polygon fill="black" stroke="black" points="1719.48,-118.1 1715.98,-108.1 1712.48,-118.1 1719.48,-118.1"/>
</g>
<!-- [root] var.ssh_keys -->
<g id="node12" class="node">
<title>[root] var.ssh_keys</title>
<polygon fill="none" stroke="black" points="1904.98,-108 1804.98,-108 1804.98,-72 1910.98,-72 1910.98,-102 1904.98,-108"/>
<polyline fill="none" stroke="black" points="1904.98,-108 1904.98,-102 "/>
<polyline fill="none" stroke="black" points="1910.98,-102 1904.98,-102 "/>
<text text-anchor="middle" x="1857.98" y="-86.3" font-family="Times,serif" font-size="14.00">var.ssh_keys</text>
</g>
<!-- [root] proxmox_vm_qemu.tf&#45;agents (expand)&#45;&gt;[root] var.ssh_keys -->
<g id="edge12" class="edge">
<title>[root] proxmox_vm_qemu.tf&#45;agents (expand)&#45;&gt;[root] var.ssh_keys</title>
<path fill="none" stroke="black" d="M1750.71,-143.88C1769.8,-134.47 1793.66,-122.71 1814.02,-112.67"/>
<polygon fill="black" stroke="black" points="1815.68,-115.75 1823.11,-108.19 1812.59,-109.47 1815.68,-115.75"/>
</g>
<!-- [root] var.target_node -->
<g id="node13" class="node">
<title>[root] var.target_node</title>
<polygon fill="none" stroke="black" points="2050.98,-108 1928.98,-108 1928.98,-72 2056.98,-72 2056.98,-102 2050.98,-108"/>
<polyline fill="none" stroke="black" points="2050.98,-108 2050.98,-102 "/>
<polyline fill="none" stroke="black" points="2056.98,-102 2050.98,-102 "/>
<text text-anchor="middle" x="1992.98" y="-86.3" font-family="Times,serif" font-size="14.00">var.target_node</text>
</g>
<!-- [root] proxmox_vm_qemu.tf&#45;agents (expand)&#45;&gt;[root] var.target_node -->
<g id="edge13" class="edge">
<title>[root] proxmox_vm_qemu.tf&#45;agents (expand)&#45;&gt;[root] var.target_node</title>
<path fill="none" stroke="black" d="M1783.39,-143.97C1824.3,-133.63 1876.58,-120.41 1918.69,-109.77"/>
<polygon fill="black" stroke="black" points="1919.77,-113.11 1928.61,-107.27 1918.06,-106.32 1919.77,-113.11"/>
</g>
<!-- [root] var.user -->
<g id="node14" class="node">
<title>[root] var.user</title>
<polygon fill="none" stroke="black" points="2142.98,-108 2074.98,-108 2074.98,-72 2148.98,-72 2148.98,-102 2142.98,-108"/>
<polyline fill="none" stroke="black" points="2142.98,-108 2142.98,-102 "/>
<polyline fill="none" stroke="black" points="2148.98,-102 2142.98,-102 "/>
<text text-anchor="middle" x="2111.98" y="-86.3" font-family="Times,serif" font-size="14.00">var.user</text>
</g>
<!-- [root] proxmox_vm_qemu.tf&#45;agents (expand)&#45;&gt;[root] var.user -->
<g id="edge14" class="edge">
<title>[root] proxmox_vm_qemu.tf&#45;agents (expand)&#45;&gt;[root] var.user</title>
<path fill="none" stroke="black" d="M1826.7,-150.08C1893.56,-142.11 1980.4,-129.31 2065,-107.98"/>
<polygon fill="black" stroke="black" points="2065.96,-111.35 2074.77,-105.47 2064.22,-104.56 2065.96,-111.35"/>
</g>
<!-- [root] var.vm&#45;name -->
<g id="node15" class="node">
<title>[root] var.vm&#45;name</title>
<polygon fill="none" stroke="black" points="2268.98,-108 2166.98,-108 2166.98,-72 2274.98,-72 2274.98,-102 2268.98,-108"/>
<polyline fill="none" stroke="black" points="2268.98,-108 2268.98,-102 "/>
<polyline fill="none" stroke="black" points="2274.98,-102 2268.98,-102 "/>
<text text-anchor="middle" x="2220.98" y="-86.3" font-family="Times,serif" font-size="14.00">var.vm&#45;name</text>
</g>
<!-- [root] proxmox_vm_qemu.tf&#45;agents (expand)&#45;&gt;[root] var.vm&#45;name -->
<g id="edge15" class="edge">
<title>[root] proxmox_vm_qemu.tf&#45;agents (expand)&#45;&gt;[root] var.vm&#45;name</title>
<path fill="none" stroke="black" d="M1826.56,-152.2C1913.92,-144.21 2039,-130.47 2156.87,-108.06"/>
<polygon fill="black" stroke="black" points="2157.64,-111.48 2166.8,-106.15 2156.32,-104.61 2157.64,-111.48"/>
</g>
<!-- [root] var.agent&#45;count -->
<g id="node6" class="node">
<title>[root] var.agent&#45;count</title>
<polygon fill="none" stroke="black" points="1206.98,-324 1084.98,-324 1084.98,-288 1212.98,-288 1212.98,-318 1206.98,-324"/>
<polyline fill="none" stroke="black" points="1206.98,-324 1206.98,-318 "/>
<polyline fill="none" stroke="black" points="1212.98,-318 1206.98,-318 "/>
<text text-anchor="middle" x="1148.98" y="-302.3" font-family="Times,serif" font-size="14.00">var.agent&#45;count</text>
</g>
<!-- [root] provider[&quot;registry.terraform.io/hashicorp/local&quot;] (close) -->
<g id="node16" class="node">
<title>[root] provider[&quot;registry.terraform.io/hashicorp/local&quot;] (close)</title>
<ellipse fill="none" stroke="black" cx="1526.98" cy="-306" rx="295.95" ry="18"/>
<text text-anchor="middle" x="1526.98" y="-302.3" font-family="Times,serif" font-size="14.00">[root] provider[&quot;registry.terraform.io/hashicorp/local&quot;] (close)</text>
</g>
<!-- [root] provider[&quot;registry.terraform.io/hashicorp/local&quot;] (close)&#45;&gt;[root] local_file.create&#45;hostname&#45;file (expand) -->
<g id="edge4" class="edge">
<title>[root] provider[&quot;registry.terraform.io/hashicorp/local&quot;] (close)&#45;&gt;[root] local_file.create&#45;hostname&#45;file (expand)</title>
<path fill="none" stroke="black" d="M1519.81,-287.7C1516.54,-279.81 1512.6,-270.3 1508.98,-261.55"/>
<polygon fill="black" stroke="black" points="1512.12,-260 1505.06,-252.1 1505.66,-262.68 1512.12,-260"/>
</g>
<!-- [root] provider[&quot;registry.terraform.io/telmate/proxmox&quot;] (close) -->
<g id="node17" class="node">
<title>[root] provider[&quot;registry.terraform.io/telmate/proxmox&quot;] (close)</title>
<ellipse fill="none" stroke="black" cx="1934.98" cy="-234" rx="304.65" ry="18"/>
<text text-anchor="middle" x="1934.98" y="-230.3" font-family="Times,serif" font-size="14.00">[root] provider[&quot;registry.terraform.io/telmate/proxmox&quot;] (close)</text>
</g>
<!-- [root] provider[&quot;registry.terraform.io/telmate/proxmox&quot;] (close)&#45;&gt;[root] proxmox_vm_qemu.tf&#45;agents (expand) -->
<g id="edge5" class="edge">
<title>[root] provider[&quot;registry.terraform.io/telmate/proxmox&quot;] (close)&#45;&gt;[root] proxmox_vm_qemu.tf&#45;agents (expand)</title>
<path fill="none" stroke="black" d="M1882.52,-216.23C1851.56,-206.34 1812.15,-193.74 1779.45,-183.29"/>
<polygon fill="black" stroke="black" points="1780.12,-179.83 1769.53,-180.12 1777.99,-186.49 1780.12,-179.83"/>
</g>
<!-- [root] root -->
<g id="node18" class="node">
<title>[root] root</title>
<ellipse fill="none" stroke="black" cx="1526.98" cy="-378" rx="58.49" ry="18"/>
<text text-anchor="middle" x="1526.98" y="-374.3" font-family="Times,serif" font-size="14.00">[root] root</text>
</g>
<!-- [root] root&#45;&gt;[root] var.agent&#45;count -->
<g id="edge18" class="edge">
<title>[root] root&#45;&gt;[root] var.agent&#45;count</title>
<path fill="none" stroke="black" d="M1476.08,-369.06C1417.47,-359.72 1318.07,-343.26 1223.09,-324.17"/>
<polygon fill="black" stroke="black" points="1223.52,-320.68 1213.03,-322.13 1222.13,-327.55 1223.52,-320.68"/>
</g>
<!-- [root] root&#45;&gt;[root] provider[&quot;registry.terraform.io/hashicorp/local&quot;] (close) -->
<g id="edge16" class="edge">
<title>[root] root&#45;&gt;[root] provider[&quot;registry.terraform.io/hashicorp/local&quot;] (close)</title>
<path fill="none" stroke="black" d="M1526.98,-359.7C1526.98,-351.98 1526.98,-342.71 1526.98,-334.11"/>
<polygon fill="black" stroke="black" points="1530.48,-334.1 1526.98,-324.1 1523.48,-334.1 1530.48,-334.1"/>
</g>
<!-- [root] root&#45;&gt;[root] provider[&quot;registry.terraform.io/telmate/proxmox&quot;] (close) -->
<g id="edge17" class="edge">
<title>[root] root&#45;&gt;[root] provider[&quot;registry.terraform.io/telmate/proxmox&quot;] (close)</title>
<path fill="none" stroke="black" d="M1585.39,-376.03C1648.92,-372.94 1752.08,-361.84 1831.98,-324 1864.36,-308.66 1894.52,-280.27 1913.73,-259.67"/>
<polygon fill="black" stroke="black" points="1916.38,-261.95 1920.53,-252.2 1911.21,-257.23 1916.38,-261.95"/>
</g>
</g>
</svg>
